<?xml version="1.0" encoding="UTF-8"?>
<svg version="1.1" xmlns="http://www.w3.org/2000/svg" width="281" height="262">
<path d="M0 0 C92.73 0 185.46 0 281 0 C281 86.46 281 172.92 281 262 C188.27 262 95.54 262 0 262 C0 175.54 0 89.08 0 0 Z " fill="#000638" transform="translate(0,0)"/>
<path d="M0 0 C4.33115517 2.28815745 7.16251098 4.40627745 9 9 C9.70241555 13.68277033 9.47489688 17.03194098 7.375 21.3125 C4.25547447 24.84248942 1.59967526 27.63830605 -3.24609375 28.3125 C-9.17409388 28.46824385 -9.17409388 28.46824385 -11.8671875 26.94140625 C-20.94635365 22.93393547 -38.09172947 30.13120566 -47.17504883 32.57275391 C-49 33 -49 33 -51 33 C-50.65445068 33.75579346 -50.30890137 34.51158691 -49.95288086 35.2902832 C-48.27694866 38.96248575 -46.60583427 42.63684049 -44.9375 46.3125 C-44.62887024 46.99206757 -44.32024048 47.67163513 -44.0022583 48.37179565 C-40.200075 56.75633243 -36.4724338 65.16770584 -32.87109375 73.640625 C-32.53514694 74.4303923 -32.19920013 75.22015961 -31.85307312 76.03385925 C-30.21769884 79.88417298 -28.59165205 83.73816159 -26.97631836 87.59692383 C-26.37756455 89.01388668 -25.77869339 90.43079995 -25.1796875 91.84765625 C-24.91663315 92.48394958 -24.6535788 93.12024292 -24.3825531 93.77581787 C-21.98161539 99.43033089 -19.17561352 104.41014464 -14.3125 108.25 C-11.49567289 110.49381089 -10.17563574 111.65938793 -9.69140625 115.35546875 C-9.45944833 120.45151386 -9.3738467 124.03152603 -12.75 128.0625 C-15.89613187 131.31191397 -18.75852008 132.8328777 -23.25 133.4375 C-28.03837127 132.87885668 -31.3864047 131.181535 -35 128 C-37.52195978 124.41618263 -38.24457268 122.21399894 -38.14453125 117.87109375 C-38.7405414 108.41430312 -43.53586764 100.39859482 -47.6875 92.0625 C-48.54976645 90.29581558 -49.41018298 88.52822713 -50.26879883 86.75976562 C-51.9987104 83.20353535 -53.7387734 79.65258676 -55.48828125 76.10595703 C-57.81054268 71.39452268 -60.10054193 66.66826283 -62.375 61.93359375 C-62.70474319 61.24733414 -63.03448639 60.56107452 -63.3742218 59.85401917 C-64.00782241 58.53519033 -64.64135458 57.21632861 -65.27481079 55.89743042 C-67.50562877 51.25968315 -69.75349979 46.63016573 -72 42 C-104.92990469 49.37629865 -137.47367607 70.66429497 -163 92 C-164.04065002 92.84660818 -165.08304848 93.6910837 -166.12890625 94.53125 C-171.50428637 98.87987212 -176.74877488 103.33603713 -181.83984375 108.015625 C-183.50649035 109.54664936 -185.2140392 111.03322485 -186.9375 112.5 C-189.40218102 115.48749215 -190.11118334 118.17448865 -191.1875 121.84375 C-192.40006296 125.06170555 -194.35147395 126.88117916 -197 129 C-201.96123789 130.65374596 -208.15766119 131.39878879 -212.984375 129.0234375 C-216.44388915 126.23184935 -218.69256426 123.23190361 -219.30078125 118.81640625 C-219.32566577 114.03028393 -219.18321629 110.81985955 -216 107 C-212.92899919 103.99879466 -210.90334925 102.20879299 -206.6875 101.234375 C-202.07729149 99.69112723 -199.96200121 97.45509748 -196.75 93.9375 C-195.60931701 92.74500493 -194.46474181 91.55622143 -193.31640625 90.37109375 C-192.75453613 89.79085449 -192.19266602 89.21061523 -191.61376953 88.61279297 C-188.60044291 85.60128984 -185.30053296 82.98392717 -181.9609375 80.34765625 C-179.80340865 78.63700343 -177.69602902 76.90542036 -175.6015625 75.12109375 C-132.76579692 38.91157407 -77.8174414 13.60372031 -22.49023438 4.41650391 C-17.75663089 3.5806178 -14.01328735 2.22078602 -9.84082031 -0.1887207 C-6.49150149 -1.6648197 -3.39751197 -1.09733306 0 0 Z " fill="#00ABFD" transform="translate(253,112)"/>
<path d="M0 0 C7.87006092 3.8607846 10.64040659 11.01604801 13.57421875 18.78125 C13.89958618 19.62432205 14.22495361 20.4673941 14.56018066 21.33601379 C15.25203576 23.13051554 15.94075238 24.92622999 16.6265564 26.72305298 C17.69336865 29.51536078 18.77041043 32.30350754 19.85083008 35.09057617 C22.17652912 41.09083037 24.496914 47.09313507 26.80761719 53.09918213 C28.24878567 56.84456944 29.71030384 60.58118999 31.1875 64.3125 C31.67512817 65.59640625 31.67512817 65.59640625 32.17260742 66.90625 C34.05923764 71.62257867 35.77508889 73.97825507 40 77 C43.03817201 81.51122511 42.60556606 86.7769927 42 92 C40.22652978 95.81978202 38.74050477 97.48336877 35.3125 99.875 C30.12814532 101.63572423 25.37191138 101.97032738 20.25 99.875 C16.55276393 96.79396994 13.549221 93.64766299 12 89 C12.10621804 87.29709081 12.23145525 85.59534245 12.3671875 83.89453125 C12.43922897 75.03209591 8.64609873 67.63695866 5.125 59.6875 C4.14179151 57.41712505 3.16475629 55.1442229 2.19088745 52.86982727 C1.58771425 51.46666786 0.97821041 50.06620545 0.3611145 48.66911316 C-1.45780085 44.50428284 -2.84030693 40.39595487 -4 36 C-4.66 36 -5.32 36 -6 36 C-6.2774707 36.87993118 -6.55494141 37.75986237 -6.84082031 38.66645813 C-7.89783152 41.70618627 -9.10774199 44.46301192 -10.546875 47.33666992 C-11.05500732 48.3560112 -11.56313965 49.37535248 -12.08666992 50.42558289 C-12.63556885 51.51619522 -13.18446777 52.60680756 -13.75 53.73046875 C-14.32274658 54.87550369 -14.89549316 56.02053864 -15.4855957 57.20027161 C-16.70032639 59.62817151 -17.91772 62.05471034 -19.13720703 64.48022461 C-20.66958541 67.52824776 -22.19685377 70.57879303 -23.72232914 73.63027573 C-31.75418362 89.69335403 -39.81463394 105.74362382 -48.56640625 121.4296875 C-55.79546751 134.16268496 -55.79546751 134.16268496 -57.74609375 148.38671875 C-58.148028 152.52354975 -60.37230435 154.73450398 -63.2109375 157.609375 C-67.4662559 160.9170024 -72.87298931 160.57499185 -78 160 C-82.40802625 157.83605984 -85.23139226 155.61803133 -87 151 C-87.69923094 146.44440447 -88.14036455 142.03745133 -85.828125 137.90625 C-83.63494112 135.32869369 -81.20207938 133.17183395 -78.625 130.98046875 C-74.96038618 126.81960514 -72.97098458 122.20660805 -70.6875 117.1875 C-69.70938507 115.09065491 -68.73021587 112.99430128 -67.75 110.8984375 C-67.27691406 109.87975586 -66.80382812 108.86107422 -66.31640625 107.81152344 C-64.66380044 104.28195955 -62.9447839 100.7908548 -61.1875 97.3125 C-60.88263672 96.70631836 -60.57777344 96.10013672 -60.26367188 95.47558594 C-59.58398578 94.12499698 -58.90360127 92.77475935 -58.22265625 91.42480469 C-47.73567136 70.63342767 -47.73567136 70.63342767 -37.5625 49.6875 C-37.13525635 48.79232666 -36.7080127 47.89715332 -36.26782227 46.97485352 C-34.21958415 42.67786358 -32.17718216 38.37823527 -30.14892578 34.07177734 C-28.48305336 30.53584612 -26.80622669 27.00526094 -25.12374878 23.47720337 C-24.46448374 22.08955793 -23.80906479 20.70007786 -23.15774536 19.3086853 C-22.24257595 17.354611 -21.31416956 15.40733758 -20.3828125 13.4609375 C-19.85059082 12.33478027 -19.31836914 11.20862305 -18.77001953 10.04833984 C-14.21067861 2.19621146 -8.9144994 -1.2211643 0 0 Z " fill="#00EFFD" transform="translate(142,14)"/>
<path d="M0 0 C0.66 -0.33 1.32 -0.66 2 -1 C2.99 0.65 3.98 2.3 5 4 C5.99 3.67 6.98 3.34 8 3 C9.5625 4.1875 9.5625 4.1875 11 6 C10.835 6.70125 10.67 7.4025 10.5 8.125 C9.76189638 12.36909584 11.02037583 16.19786469 13 20 C14.485 20.495 14.485 20.495 16 21 C15.67 21.66 15.34 22.32 15 23 C15.89363605 25.60931266 15.89363605 25.60931266 17 28 C17.66 28 18.32 28 19 28 C19.0825 28.969375 19.165 29.93875 19.25 30.9375 C19.80745731 34.92857121 21.30515122 38.21962113 23.01171875 41.84375 C24.22839078 44.49830715 25.14187802 47.21110357 26 50 C24.68 50.33 23.36 50.66 22 51 C21.53625977 49.81446533 21.07251953 48.62893066 20.59472656 47.4074707 C18.86658988 42.99640834 17.12692078 38.5899703 15.38378906 34.18481445 C14.63195129 32.28012638 13.88321754 30.37420994 13.13769531 28.46704102 C12.06354787 25.72080405 10.97819601 22.97922532 9.890625 20.23828125 C9.56128967 19.38913651 9.23195435 18.53999176 8.89263916 17.66511536 C6.83949055 12.52982099 4.81655576 7.85167627 0.02734375 4.703125 C-4.50816081 3.13011764 -9.35150108 3.57910666 -13.9375 4.75 C-16.44244619 6.2681492 -16.79296119 7.36719941 -18 10 C-18.36814316 10.74659378 -18.73628632 11.49318756 -19.11558533 12.2624054 C-19.52208817 13.09015976 -19.928591 13.91791412 -20.34741211 14.77075195 C-20.81227524 15.71727127 -21.27713837 16.66379059 -21.75608826 17.63899231 C-23.91384145 22.03503272 -26.07110005 26.43131539 -28.2277832 30.82788086 C-29.35101609 33.11717158 -30.47470012 35.40624102 -31.59887695 37.69506836 C-40.60866581 56.0395279 -49.53480604 74.42149156 -58.1875 92.9375 C-61.70110377 100.43286353 -65.37476689 107.84133844 -69.10693359 115.22998047 C-70.41189413 117.81635659 -71.70590881 120.40817229 -73 123 C-73.66666667 124.33333333 -74.33333333 125.66666667 -75 127 C-77.35953094 124.64046906 -77.49141413 123.22104383 -78 120 C-77.01 119.505 -77.01 119.505 -76 119 C-73.6196237 115.45489412 -71.97430509 111.76170428 -70.375 107.8125 C-68.05298013 102.10596026 -68.05298013 102.10596026 -67 100 C-66.34 100 -65.68 100 -65 100 C-63.9412242 97.52952314 -63.04684411 95.28481217 -62.609375 92.625 C-61.92503022 89.67705325 -60.81150993 87.73246746 -59.1875 85.1875 C-56.5142326 80.89094734 -54.19455681 76.55792568 -52 72 C-52.66 72 -53.32 72 -54 72 C-53.43453326 68.04173281 -52.36453668 65.240291 -50 62 C-49.319375 61.690625 -48.63875 61.38125 -47.9375 61.0625 C-45.67203875 60.09184414 -45.67203875 60.09184414 -44.875 57.0625 C-44.58625 56.051875 -44.2975 55.04125 -44 54 C-43.34 53.01 -42.68 52.02 -42 51 C-41.83286431 48.37468476 -41.83286431 48.37468476 -42 46 C-41.01 45.67 -40.02 45.34 -39 45 C-38.67 43.02 -38.34 41.04 -38 39 C-37.34 39 -36.68 39 -36 39 C-36 38.34 -36 37.68 -36 37 C-35.34 37 -34.68 37 -34 37 C-33.896875 36.484375 -33.79375 35.96875 -33.6875 35.4375 C-33 33 -33 33 -31.375 29.5625 C-29.91909354 25.79037873 -30.08856258 24.74702049 -31 21 C-30.375 18.75 -30.375 18.75 -29 17 C-26.375 16.25 -26.375 16.25 -24 16 C-23.896875 14.948125 -23.79375 13.89625 -23.6875 12.8125 C-22.63013699 6.94894147 -22.63013699 6.94894147 -20 4 C-16.76038235 2.37737411 -13.41760638 1.18941012 -10 0 C-9.12472656 -0.38671875 -8.24945313 -0.7734375 -7.34765625 -1.171875 C-4.23163836 -2.27103605 -2.9190992 -1.34120774 0 0 Z " fill="#00166C" transform="translate(144,11)"/>
<path d="M0 0 C0.66 0 1.32 0 2 0 C4.14074652 5.0884482 6.27687256 10.17880115 8.40869141 15.27099609 C9.13495421 17.00395339 9.86248918 18.73637809 10.59130859 20.46826172 C11.63712065 22.9540218 12.6783812 25.44164521 13.71875 27.9296875 C14.21091003 29.09538773 14.21091003 29.09538773 14.7130127 30.28463745 C17 35.77225659 17 35.77225659 17 38 C14 38 14 38 11.875 36.5625 C9.53425746 33.36348519 9.53699962 31.12993175 9.28125 27.26171875 C8.89004321 24.11576418 7.59568364 21.70572444 6 19 C5.67 19 5.34 19 5 19 C4.79503906 18.28972656 4.59007812 17.57945313 4.37890625 16.84765625 C4.10949219 15.92855469 3.84007812 15.00945312 3.5625 14.0625 C3.29566406 13.14597656 3.02882812 12.22945312 2.75390625 11.28515625 C2.20973949 9.0597507 2.20973949 9.0597507 1 8 C-0.12931621 9.89326541 -1.25327616 11.7897264 -2.375 13.6875 C-3.00148437 14.74324219 -3.62796875 15.79898438 -4.2734375 16.88671875 C-6.11455659 20.2065647 -7.6286161 23.35217899 -8.46484375 27.0625 C-9.30632194 30.10901956 -11.16308802 32.42068291 -12.94140625 35 C-14.31187227 37.21207346 -14.31187227 37.21207346 -14 41 C-14.99 41.33 -15.98 41.66 -17 42 C-17.33 42.99 -17.66 43.98 -18 45 C-18.66 45 -19.32 45 -20 45 C-19.95875 45.70125 -19.9175 46.4025 -19.875 47.125 C-20.01942836 50.44685217 -20.70812101 52.94028661 -22 56 C-22.99 56.66 -23.98 57.32 -25 58 C-24.67 58.66 -24.34 59.32 -24 60 C-24.61875 60.53625 -25.2375 61.0725 -25.875 61.625 C-28.2782902 64.31103023 -29.06022153 66.55414562 -30 70 C-30.66 70 -31.32 70 -32 70 C-32 71.32 -32 72.64 -32 74 C-33 75 -34 76 -35 77 C-35.67939174 78.99571323 -36.34561559 80.99594773 -37 83 C-37.515625 83.680625 -38.03125 84.36125 -38.5625 85.0625 C-40.18273032 86.94363982 -40.18273032 86.94363982 -40.4375 89.5 C-41.15706861 92.69808271 -42.71005619 93.71005619 -45 96 C-46.96841416 100.86923503 -48.05607343 105.3738705 -47.875 110.625 C-48 114 -48 114 -49.5 115.9375 C-49.995 116.288125 -50.49 116.63875 -51 117 C-51 115.35 -51 113.7 -51 112 C-51.33 112 -51.66 112 -52 112 C-52.60937444 104.39466533 -51.38168401 99.37472065 -47.7578125 92.72265625 C-47.31541229 91.87182968 -46.87301208 91.02100311 -46.41720581 90.14439392 C-45.00536774 87.43999647 -43.56601543 84.75144255 -42.125 82.0625 C-41.19604635 80.2946013 -40.26894848 78.52572617 -39.34375 76.75585938 C-36.58504191 71.49183614 -33.79415221 66.24526982 -31 61 C-23.75099055 47.37141487 -16.75289276 33.63192524 -9.875 19.8125 C-8.9090451 17.87555581 -7.94290011 15.93870641 -6.9765625 14.00195312 C-4.64886078 9.33571925 -2.32369329 4.6682312 0 0 Z " fill="#01156A" transform="translate(136,50)"/>
<path d="M0 0 C0.33 0 0.66 0 1 0 C1.92094953 8.47614658 1.92094953 8.47614658 -0.30078125 12.15234375 C-1.80389566 13.84917697 -3.37806974 15.41850568 -5 17 C-5.33 17.66 -5.66 18.32 -6 19 C-13.26260591 20.63441585 -19.8885514 19.77179436 -27 18 C-28.665216 17.65949365 -30.33154398 17.32425824 -32 17 C-32 17.66 -32 18.32 -32 19 C-32.639375 18.814375 -33.27875 18.62875 -33.9375 18.4375 C-34.9584375 18.2209375 -34.9584375 18.2209375 -36 18 C-36.33 18.33 -36.66 18.66 -37 19 C-38.86961787 19.32438165 -40.74615059 19.60925703 -42.625 19.875 C-47.56051142 20.66327 -51.59175042 21.64893356 -56 24 C-57.33332095 26.6666419 -56.67102033 28.16680303 -56 31 C-55.34 31 -54.68 31 -54 31 C-53.16235732 32.95649397 -52.33000941 34.91525556 -51.5 36.875 C-51.0359375 37.96554688 -50.571875 39.05609375 -50.09375 40.1796875 C-49 43 -49 43 -49 45 C-48.34 45.33 -47.68 45.66 -47 46 C-45.9296875 48.43359375 -45.9296875 48.43359375 -44.875 51.4375 C-44.52179688 52.42621094 -44.16859375 53.41492188 -43.8046875 54.43359375 C-43 57 -43 57 -43 59 C-41.515 59.495 -41.515 59.495 -40 60 C-39.80083984 61.07314453 -39.80083984 61.07314453 -39.59765625 62.16796875 C-39.01226465 64.94188322 -38.26841556 67.60299275 -37.4375 70.3125 C-37.16808594 71.19550781 -36.89867187 72.07851562 -36.62109375 72.98828125 C-36.41613281 73.65214844 -36.21117187 74.31601563 -36 75 C-38.7732218 73.6133891 -39.18056694 71.90063662 -40.5 69.125 C-41.87956513 66.23969 -43.22052664 63.66921004 -45 61 C-46.07953462 58.75671302 -47.12796351 56.51038216 -48.15234375 54.2421875 C-48.45314346 53.57970001 -48.75394318 52.91721252 -49.06385803 52.23464966 C-49.69979618 50.8315374 -50.33431981 49.42778329 -50.9675293 48.0234375 C-51.92564726 45.90125325 -52.8912459 43.78258789 -53.85742188 41.6640625 C-56.93460194 34.87716258 -59.84314214 28.14707883 -62 21 C-54.08590996 18.23961238 -46.15495223 16.28807244 -37.9375 14.6875 C-37.02137939 14.50413086 -36.10525879 14.32076172 -35.16137695 14.13183594 C-33.85753052 13.88675293 -33.85753052 13.88675293 -32.52734375 13.63671875 C-31.36319946 13.41568481 -31.36319946 13.41568481 -30.17553711 13.19018555 C-26.7904972 12.89426521 -24.19452858 13.93515714 -21 15 C-16.30868877 15.54508569 -12.89669352 15.44834676 -8.625 13.3125 C-6.03460313 11.03048371 -4.66023129 8.98841632 -3 6 C-2.34 6 -1.68 6 -1 6 C-0.67 4.02 -0.34 2.04 0 0 Z " fill="#010C5E" transform="translate(264,124)"/>
<path d="M0 0 C1.38671875 2.21484375 1.38671875 2.21484375 2.6875 4.9375 C3.12449219 5.83339844 3.56148438 6.72929687 4.01171875 7.65234375 C5 10 5 10 5 12 C4.01 12 3.02 12 2 12 C1.4225 10.865625 0.845 9.73125 0.25 8.5625 C-1.34080449 5.80192213 -1.34080449 5.80192213 -3.8125 3.875 C-7.23056689 4.07031811 -9.93369878 5.55047579 -13 7 C-13.99 7.33 -14.98 7.66 -16 8 C-16 8.66 -16 9.32 -16 10 C-17.39449109 10.483059 -18.79066707 10.96125517 -20.1875 11.4375 C-20.96480469 11.70433594 -21.74210937 11.97117188 -22.54296875 12.24609375 C-25 13 -25 13 -27.53515625 13.453125 C-30.16197361 14.03593709 -31.94869683 14.93597977 -34.25 16.3125 C-45.85592297 23 -45.85592297 23 -50 23 C-50 23.66 -50 24.32 -50 25 C-50.66 25 -51.32 25 -52 25 C-52 25.66 -52 26.32 -52 27 C-53.60875 27.86625 -53.60875 27.86625 -55.25 28.75 C-57.64254777 30.10001189 -59.18314939 31.18853613 -61.125 33.1875 C-63 35 -63 35 -65.25 35.375 C-70.62144625 36.59578324 -74.99770423 40.49655634 -78 45 C-79.32 44.34 -80.64 43.68 -82 43 C-80.67898586 39.92183771 -79.50811418 38.34517351 -76.68359375 36.5546875 C-76.01110596 36.12285156 -75.33861816 35.69101563 -74.64575195 35.24609375 C-73.91702881 34.79363281 -73.18830566 34.34117187 -72.4375 33.875 C-71.67590576 33.39417969 -70.91431152 32.91335937 -70.12963867 32.41796875 C-67.76118678 30.9318048 -65.38244763 29.46360277 -63 28 C-62.30358398 27.56848633 -61.60716797 27.13697266 -60.88964844 26.69238281 C-11.42468125 -3.80822708 -11.42468125 -3.80822708 0 0 Z " fill="#000F62" transform="translate(182,154)"/>
<path d="M0 0 C1.65 0 3.3 0 5 0 C5 0.99 5 1.98 5 3 C3.7625 3.44988281 2.525 3.89976562 1.25 4.36328125 C-23.76794287 13.5920136 -47.16686236 25.23517937 -70 39 C-70.66 38.34 -71.32 37.68 -72 37 C-70.576875 36.071875 -70.576875 36.071875 -69.125 35.125 C-66.05554891 33.18029031 -66.05554891 33.18029031 -64 31 C-59.34954793 27.97461296 -54.56292828 25.2153032 -49.5625 22.8125 C-46.53850451 21.27397598 -45.25604838 20.29385925 -43 18 C-41.0625 17.4375 -41.0625 17.4375 -39 17 C-38.34 16.649375 -37.68 16.29875 -37 15.9375 C-35 15 -35 15 -31 15 C-30.67 14.34 -30.34 13.68 -30 13 C-27.4375 12.375 -27.4375 12.375 -25 12 C-24.67 10.68 -24.34 9.36 -24 8 C-22.72125 7.87625 -21.4425 7.7525 -20.125 7.625 C-16.65209064 7.30957601 -16.65209064 7.30957601 -14 5 C-12.68 5 -11.36 5 -10 5 C-9.01 4.34 -8.02 3.68 -7 3 C-5.453125 2.7525 -5.453125 2.7525 -3.875 2.5 C-2.92625 2.335 -1.9775 2.17 -1 2 C-0.67 1.34 -0.34 0.68 0 0 Z " fill="#01126A" transform="translate(177,127)"/>
<path d="M0 0 C0.66 0 1.32 0 2 0 C4.14074652 5.0884482 6.27687256 10.17880115 8.40869141 15.27099609 C9.13495421 17.00395339 9.86248918 18.73637809 10.59130859 20.46826172 C11.63712065 22.9540218 12.6783812 25.44164521 13.71875 27.9296875 C14.04685669 28.70682098 14.37496338 29.48395447 14.7130127 30.28463745 C17 35.77225659 17 35.77225659 17 38 C14 38 14 38 11.875 36.5625 C9.53425746 33.36348519 9.53699962 31.12993175 9.28125 27.26171875 C8.89004321 24.11576418 7.59568364 21.70572444 6 19 C5.67 19 5.34 19 5 19 C4.79503906 18.28972656 4.59007812 17.57945313 4.37890625 16.84765625 C4.10949219 15.92855469 3.84007812 15.00945312 3.5625 14.0625 C3.29566406 13.14597656 3.02882812 12.22945312 2.75390625 11.28515625 C2.20973949 9.0597507 2.20973949 9.0597507 1 8 C-0.12931621 9.89326541 -1.25327616 11.7897264 -2.375 13.6875 C-3.31472656 15.27111328 -3.31472656 15.27111328 -4.2734375 16.88671875 C-6.11455659 20.2065647 -7.6286161 23.35217899 -8.46484375 27.0625 C-9.30632194 30.10901956 -11.16308802 32.42068291 -12.94140625 35 C-14.31187227 37.21207346 -14.31187227 37.21207346 -14 41 C-15.485 41.495 -15.485 41.495 -17 42 C-17.33 42.99 -17.66 43.98 -18 45 C-18.66 45 -19.32 45 -20 45 C-19.33333333 43 -18.66666667 41 -18 39 C-17.73316406 38.12601563 -17.46632813 37.25203125 -17.19140625 36.3515625 C-15.67578791 32.08795417 -13.77150487 28.07514039 -11.8125 24 C-11.41683838 23.17072998 -11.02117676 22.34145996 -10.61352539 21.48706055 C-7.16312004 14.28051772 -3.61496953 7.1253258 0 0 Z " fill="#011B7B" transform="translate(136,50)"/>
<path d="M0 0 C5.70589472 -0.45647158 8.60098008 0.30082416 13 4 C16.16243115 7.68950301 16.52750628 11.08168347 16.34765625 15.7890625 C15.59019561 20.60617171 12.83932495 23.25827098 9.3125 26.375 C5.11657853 28.43337657 1.60153351 28.71951251 -3 28 C-3.61617187 27.65066406 -4.23234375 27.30132812 -4.8671875 26.94140625 C-13.94635365 22.93393547 -31.09172947 30.13120566 -40.17504883 32.57275391 C-42 33 -42 33 -44 33 C-43.69964844 33.60328125 -43.39929688 34.2065625 -43.08984375 34.828125 C-42.51943359 36.02695313 -42.51943359 36.02695313 -41.9375 37.25 C-41.55464844 38.03890625 -41.17179688 38.8278125 -40.77734375 39.640625 C-39.91435909 42.25993522 -40.06954067 43.44855176 -41 46 C-41.86883706 44.42466914 -42.71959068 42.83935491 -43.5625 41.25 C-44.03816406 40.36828125 -44.51382813 39.4865625 -45.00390625 38.578125 C-46 36 -46 36 -45.85546875 33.80859375 C-44.33954161 30.60368843 -41.10167436 29.38291213 -38 28 C-34.59500205 26.97058201 -32.37669426 26.87443525 -29 28 C-28.67 26.68 -28.34 25.36 -28 24 C-27.0925 24.20625 -26.185 24.4125 -25.25 24.625 C-21.75500747 25.02826837 -20.93103049 24.66091728 -18 23 C-16.68 23 -15.36 23 -14 23 C-13.06929687 22.9690625 -12.13859375 22.938125 -11.1796875 22.90625 C-7.64938377 23.01033758 -4.55255425 23.66059896 -1.125 24.5 C0.02742188 24.7784375 1.17984375 25.056875 2.3671875 25.34375 C3.23601562 25.5603125 4.10484375 25.776875 5 26 C5 25.34 5 24.68 5 24 C6.65 24 8.3 24 10 24 C10.68025637 22.00458132 11.34490497 20.00382009 12 18 C12.226875 17.319375 12.45375 16.63875 12.6875 15.9375 C13.25728643 12.40482411 12.11191776 9.33575329 11 6 C10.34 6 9.68 6 9 6 C9 5.34 9 4.68 9 4 C6.03 3.01 3.06 2.02 0 1 C0 0.67 0 0.34 0 0 Z " fill="#01EDFA" transform="translate(246,112)"/>
<path d="M0 0 C3.28606668 3.28606668 4.17009433 7.79716652 5.68359375 12.12890625 C6.33521484 13.55009766 6.33521484 13.55009766 7 15 C7.99 15.33 8.98 15.66 10 16 C9.79375 16.5775 9.5875 17.155 9.375 17.75 C8.83322298 20.00846823 8.83322298 20.00846823 9.625 22.1875 C10.91041667 24.25833333 10.91041667 24.25833333 13.625 24.75 C14.40875 24.8325 15.1925 24.915 16 25 C16.12375 25.845625 16.2475 26.69125 16.375 27.5625 C16.87856597 31.00327439 16.87856597 31.00327439 18.25 34.0625 C19.88537156 39.52193589 18.21277744 45.9127464 16 51 C13.546875 52.28515625 13.546875 52.28515625 11 53 C10.113125 53.53625 9.22625 54.0725 8.3125 54.625 C6 56 6 56 4 56 C3.67 56.66 3.34 57.32 3 58 C0.69 57.34 -1.62 56.68 -4 56 C-3.67 55.01 -3.34 54.02 -3 53 C-1.98679688 52.80083984 -1.98679688 52.80083984 -0.953125 52.59765625 C-0.06109375 52.42105469 0.8309375 52.24445313 1.75 52.0625 C2.63171875 51.88847656 3.5134375 51.71445313 4.421875 51.53515625 C5.27265625 51.35855469 6.1234375 51.18195313 7 51 C7.74378906 50.85304687 8.48757812 50.70609375 9.25390625 50.5546875 C11.20140417 50.14566956 11.20140417 50.14566956 12.1875 48.0625 C12.455625 47.381875 12.72375 46.70125 13 46 C13.33 45.34 13.66 44.68 14 44 C14.5350086 38.63237273 14.66175234 34.30068563 12.1875 29.4375 C10.05281683 26.85555314 10.05281683 26.85555314 7 25 C5.83325195 22.78515625 5.83325195 22.78515625 4.73828125 20.0625 C4.34189453 19.08539063 3.94550781 18.10828125 3.53710938 17.1015625 C3.13298828 16.07804687 2.72886719 15.05453125 2.3125 14 C1.89677734 12.97648437 1.48105469 11.95296875 1.05273438 10.8984375 C-2 3.29918411 -2 3.29918411 -2 1 C-1.34 0.67 -0.68 0.34 0 0 Z " fill="#01166B" transform="translate(169,62)"/>
<path d="M0 0 C-3.37785222 2.21973146 -6.06465539 3.2347941 -10 4 C-10.33 4.66 -10.66 5.32 -11 6 C-11.99 6 -12.98 6 -14 6 C-14.33 6.66 -14.66 7.32 -15 8 C-15.99 8 -16.98 8 -18 8 C-19.61586978 8.65322395 -21.2276893 9.318417 -22.81640625 10.03515625 C-24.37221643 10.72260726 -25.94489316 11.37240766 -27.52734375 11.99609375 C-41.81733674 17.66112526 -54.95988308 25.41210188 -67.9765625 33.51953125 C-71.60102342 35.77415146 -75.28059896 37.9060065 -79 40 C-77.88179492 36.64538475 -77.438457 36.34413148 -74.58984375 34.5390625 C-73.86007324 34.0742749 -73.13030273 33.6094873 -72.37841797 33.13061523 C-71.57291504 32.63376221 -70.76741211 32.13690918 -69.9375 31.625 C-69.0933252 31.10043213 -68.24915039 30.57586426 -67.37939453 30.03540039 C-11.31485665 -4.35186794 -11.31485665 -4.35186794 0 0 Z " fill="#02C7F4" transform="translate(178,133)"/>
<path d="M0 0 C0.66 0.33 1.32 0.66 2 1 C2 1.99 2 2.98 2 4 C0.49609375 5.359375 0.49609375 5.359375 -1.5625 6.75 C-4.57808514 8.87739693 -7.11054424 11.04991327 -9.625 13.75 C-12.55607713 16.78742006 -14.89299081 17.86401874 -19 19 C-23.26596087 21.09695285 -23.26596087 21.09695285 -25.8203125 24.93359375 C-26.6143508 27.98113512 -27 30.85291082 -27 34 C-26.01 34.33 -25.02 34.66 -24 35 C-23.3125 37.0625 -23.3125 37.0625 -23 39 C-18.49719245 40.50093585 -15.59159151 41.20831355 -11 40 C-9.3337447 39.9629721 -7.66598681 39.95240038 -6 40 C-6.33 40.66 -6.66 41.32 -7 42 C-11.96123789 43.65374596 -18.15766119 44.39878879 -22.984375 42.0234375 C-26.44388915 39.23184935 -28.69256426 36.23190361 -29.30078125 31.81640625 C-29.32566577 27.03028393 -29.18321629 23.81985955 -26 20 C-22.94416489 17.01361568 -20.93466128 15.20881919 -16.73046875 14.26953125 C-11.91001964 12.62906428 -9.47233388 10.0392991 -6.0625 6.375 C-5.47404297 5.76398438 -4.88558594 5.15296875 -4.27929688 4.5234375 C-2.84113243 3.02681108 -1.41889351 1.51490886 0 0 Z " fill="#007BF9" transform="translate(63,199)"/>
<path d="M0 0 C3.27749227 3.87339995 5.26729746 8.35558249 7.44921875 12.89453125 C7.86669876 13.76011154 8.28417877 14.62569183 8.71430969 15.51750183 C9.59339715 17.34614908 10.46990206 19.17603978 11.34399414 21.00708008 C12.68066906 23.79823609 14.03631563 26.57964877 15.39257812 29.36132812 C16.24598289 31.14265896 17.09823491 32.92454261 17.94921875 34.70703125 C18.35540939 35.53330521 18.76160004 36.35957916 19.18009949 37.21089172 C21.47808179 42.091806 22.46822026 45.60124429 22 51 C21.67 50.34 21.34 49.68 21 49 C19.515 48.505 19.515 48.505 18 48 C18.66 48 19.32 48 20 48 C19.73323796 46.01508358 19.73323796 46.01508358 19 44 C17.515 43.505 17.515 43.505 16 43 C16 42.34 16 41.68 16 41 C15.24280959 39.06945347 14.44473987 37.15482906 13.625 35.25 C11.8897415 31.21121121 10.34136934 27.18707812 9 23 C8.34 23 7.68 23 7 23 C5.23537317 19.91190305 5 18.76687864 5 15 C4.01 15.33 3.02 15.66 2 16 C0.04893237 14.04893237 0.24866112 10.61036503 -0.125 8 C-0.31320313 6.72125 -0.50140625 5.4425 -0.6953125 4.125 C-0.79585937 3.09375 -0.89640625 2.0625 -1 1 C-0.67 0.67 -0.34 0.34 0 0 Z " fill="#000C54" transform="translate(187,166)"/>
<path d="M0 0 C0.66 0 1.32 0 2 0 C1.70712656 3.29626188 1.29972495 4.70196206 -1.08203125 7.0703125 C-2.43361328 8.08738281 -2.43361328 8.08738281 -3.8125 9.125 C-8.13431425 12.49140668 -12.23941775 15.95653369 -16.25 19.6875 C-16.756521 20.15341553 -17.26304199 20.61933105 -17.78491211 21.09936523 C-19.91155705 23.05579487 -22.02374209 25.02294774 -24.1015625 27.03125 C-26.81462554 29.56503575 -28.3534165 30.94827332 -32.125 31.25 C-33.07375 31.1675 -34.0225 31.085 -35 31 C-37.78566059 31.91257306 -37.78566059 31.91257306 -40 33 C-37.51850135 29.89812669 -35.61466248 28.7361589 -31.8125 27.9375 C-29.9253125 27.4734375 -29.9253125 27.4734375 -28 27 C-27.67 26.01 -27.34 25.02 -27 24 C-25.2578125 22.28125 -25.2578125 22.28125 -23.125 20.5 C-20.14615469 17.99734679 -20.14615469 17.99734679 -17.3671875 15.28125 C-16 14 -16 14 -14 14 C-14 13.34 -14 12.68 -14 12 C-13.34 11.67 -12.68 11.34 -12 11 C-11.34 10.01 -10.68 9.02 -10 8 C-7.875 7.3125 -7.875 7.3125 -6 7 C-6 6.34 -6 5.68 -6 5 C-4.34467377 3.98133771 -2.67739862 2.98189187 -1 2 C-0.67 1.34 -0.34 0.68 0 0 Z " fill="#000849" transform="translate(77,183)"/>
<path d="M0 0 C2 1.8125 2 1.8125 4 4 C4 4.99 4 5.98 4 7 C4.66 7.33 5.32 7.66 6 8 C6.45375 9.155 6.9075 10.31 7.375 11.5 C7.91125 12.655 8.4475 13.81 9 15 C11.00572641 15.81446109 11.00572641 15.81446109 13 16 C13.66 16.99 14.32 17.98 15 19 C15.66 19.61875 16.32 20.2375 17 20.875 C19.96127352 24.02135311 21 26.69770984 21 31 C20.34 31.33 19.68 31.66 19 32 C18.34 32.99 17.68 33.98 17 35 C16.34 34.67 15.68 34.34 15 34 C14.76171875 32.14453125 14.76171875 32.14453125 14.6875 29.8125 C14.21745844 24.61730378 12.70831635 22.62403644 9 19 C8.175 18.443125 7.35 17.88625 6.5 17.3125 C2.61779808 13.72146323 0.55225742 9.02635737 -1 4 C-0.6328125 1.65625 -0.6328125 1.65625 0 0 Z " fill="#000845" transform="translate(228,200)"/>
<path d="M0 0 C0.33 0 0.66 0 1 0 C1.92094953 8.47614658 1.92094953 8.47614658 -0.30078125 12.15234375 C-1.80389566 13.84917697 -3.37806974 15.41850568 -5 17 C-5.33 17.66 -5.66 18.32 -6 19 C-14.03090768 21.00396008 -21.25925219 19.39112105 -29 17 C-29 16.34 -29 15.68 -29 15 C-29.99 15.495 -29.99 15.495 -31 16 C-32.99960012 16.039992 -35.00047242 16.04346799 -37 16 C-34.07248407 14.04832271 -32.9152711 13.63446616 -29.5625 13.25 C-28.80066406 13.15203125 -28.03882813 13.0540625 -27.25390625 12.953125 C-24.63489932 13.00759308 -23.2976128 13.7992829 -21 15 C-16.34429655 15.72798272 -12.85628313 15.42814156 -8.625 13.3125 C-6.03460313 11.03048371 -4.66023129 8.98841632 -3 6 C-2.34 6 -1.68 6 -1 6 C-0.67 4.02 -0.34 2.04 0 0 Z " fill="#010E58" transform="translate(264,124)"/>
<path d="M0 0 C1.19533386 3.58600157 0.79310955 4.05339749 -0.80859375 7.32421875 C-1.22214111 8.18039795 -1.63568848 9.03657715 -2.06176758 9.91870117 C-2.74275513 11.28925659 -2.74275513 11.28925659 -3.4375 12.6875 C-4.12332153 14.0957605 -4.12332153 14.0957605 -4.82299805 15.5324707 C-6.20426274 18.36059153 -7.59971422 21.18125602 -9 24 C-9.39026367 24.78890625 -9.78052734 25.5778125 -10.18261719 26.390625 C-12.43404824 30.93783041 -14.71257974 35.47080645 -17 40 C-18.00097407 41.99951267 -19.00111935 43.99944072 -20 46 C-20.66666667 47.33333333 -21.33333333 48.66666667 -22 50 C-24.35953094 47.64046906 -24.49141413 46.22104383 -25 43 C-24.01 42.505 -24.01 42.505 -23 42 C-20.6196237 38.45489412 -18.97430509 34.76170428 -17.375 30.8125 C-15.05298013 25.10596026 -15.05298013 25.10596026 -14 23 C-13.34 23 -12.68 23 -12 23 C-11.773125 22.34 -11.54625 21.68 -11.3125 21 C-10.23694003 18.54157722 -9.13018822 16.54912042 -7.6875 14.3125 C-4.74161847 9.72709512 -2.36230261 4.90554756 0 0 Z " fill="#01115F" transform="translate(91,88)"/>
<path d="M0 0 C0.66 0 1.32 0 2 0 C2.83790789 1.78953185 3.67019396 3.58169695 4.5 5.375 C4.9640625 6.37273438 5.428125 7.37046875 5.90625 8.3984375 C7 11 7 11 7 13 C7.99 13.33 8.98 13.66 10 14 C9.67 14.66 9.34 15.32 9 16 C9.89363605 18.60931266 9.89363605 18.60931266 11 21 C11.66 21 12.32 21 13 21 C13.12375 22.4540625 13.12375 22.4540625 13.25 23.9375 C13.80745731 27.92857121 15.30515122 31.21962113 17.01171875 34.84375 C18.22839078 37.49830715 19.14187802 40.21110357 20 43 C18.02 43.495 18.02 43.495 16 44 C14.01666987 39.12846205 12.04143207 34.25374968 10.07348633 29.37597656 C9.4034788 27.71851287 8.7313033 26.06192377 8.05688477 24.40625 C7.08553184 22.0205212 6.1221266 19.63171239 5.16015625 17.2421875 C4.85908463 16.50757294 4.558013 15.77295837 4.24781799 15.01608276 C2.64140881 11.00157531 1.58883674 7.31130901 1 3 C0.67 2.01 0.34 1.02 0 0 Z " fill="#011262" transform="translate(150,18)"/>
<path d="M0 0 C0.66 0.33 1.32 0.66 2 1 C1.40361667 2.27450447 0.79752584 3.54446877 0.1875 4.8125 C-0.31716797 5.87404297 -0.31716797 5.87404297 -0.83203125 6.95703125 C-2.02711176 9.0474229 -3.15404101 10.46091399 -5 12 C-6.66194453 12.35613097 -8.328451 12.69208308 -10 13 C-10.33 13.66 -10.66 14.32 -11 15 C-12.65848177 16.01351664 -14.32665961 17.01120795 -16 18 C-18.48166342 19.90453239 -20.78851208 21.78851208 -23 24 C-23.99 23.01 -24.98 22.02 -26 21 C-17.53739021 13.71467635 -8.91408199 6.72568216 0 0 Z " fill="#000A4E" transform="translate(100,195)"/>
<path d="M0 0 C1.38671875 2.21484375 1.38671875 2.21484375 2.6875 4.9375 C3.12449219 5.83339844 3.56148437 6.72929687 4.01171875 7.65234375 C5 10 5 10 5 12 C4.01 12 3.02 12 2 12 C1.4225 10.865625 0.845 9.73125 0.25 8.5625 C-1.34080449 5.80192213 -1.34080449 5.80192213 -3.8125 3.875 C-7.23056689 4.07031811 -9.93369878 5.55047579 -13 7 C-13.99 7.33 -14.98 7.66 -16 8 C-16 8.66 -16 9.32 -16 10 C-18.75924185 11.80411967 -19.88972103 12.0127245 -23.25 11.625 C-24.61125 11.315625 -24.61125 11.315625 -26 11 C-23.14693203 8.67527795 -20.45925163 7.2491742 -17 6 C-17 5.34 -17 4.68 -17 4 C-14.73291675 3.1344953 -12.46224921 2.28240685 -10.1875 1.4375 C-9.54490234 1.19064453 -8.90230469 0.94378906 -8.24023438 0.68945312 C-3.33984375 -1.11328125 -3.33984375 -1.11328125 0 0 Z " fill="#001571" transform="translate(182,154)"/>
<path d="M0 0 C3.90432869 0 6.38026598 0.68373308 10 2 C10 2.33 10 2.66 10 3 C9.28980713 3.14099121 8.57961426 3.28198242 7.84790039 3.42724609 C4.5858919 4.07545382 1.32419492 4.72521635 -1.9375 5.375 C-3.05447266 5.59671875 -4.17144531 5.8184375 -5.32226562 6.046875 C-11.56629182 7.29201805 -17.79086839 8.59092878 -24 10 C-23.54947266 10.90492188 -23.54947266 10.90492188 -23.08984375 11.828125 C-22.70957031 12.62734375 -22.32929688 13.4265625 -21.9375 14.25 C-21.55464844 15.03890625 -21.17179688 15.8278125 -20.77734375 16.640625 C-19.91435909 19.25993522 -20.06954067 20.44855176 -21 23 C-21.86883706 21.42466914 -22.71959068 19.83935491 -23.5625 18.25 C-24.03816406 17.36828125 -24.51382813 16.4865625 -25.00390625 15.578125 C-26 13 -26 13 -25.85546875 10.80859375 C-24.33954161 7.60368843 -21.10167436 6.38291213 -18 5 C-14.59500205 3.97058201 -12.37669426 3.87443525 -9 5 C-8.67 3.68 -8.34 2.36 -8 1 C-7.05125 1.20625 -6.1025 1.4125 -5.125 1.625 C-4.09375 1.74875 -3.0625 1.8725 -2 2 C-1.34 1.34 -0.68 0.68 0 0 Z " fill="#01DCF9" transform="translate(226,135)"/>
<path d="M0 0 C0 0.33 0 0.66 0 1 C-1.093125 1.12375 -2.18625 1.2475 -3.3125 1.375 C-7.19421949 2.03291856 -9.03222739 3.33487006 -12.2109375 5.51953125 C-15.58268794 7.30929794 -18.90731489 8.02310901 -22.625 8.6875 C-23.62660156 8.88182617 -23.62660156 8.88182617 -24.6484375 9.08007812 C-27.4805544 9.61534822 -30.1114276 10 -33 10 C-33 9.01 -33 8.02 -33 7 C-29.535 6.505 -29.535 6.505 -26 6 C-26 5.01 -26 4.02 -26 3 C-18.375 2 -18.375 2 -15 2 C-13.948125 1.484375 -12.89625 0.96875 -11.8125 0.4375 C-7.59217016 -1.49230894 -4.48482722 -0.86549297 0 0 Z " fill="#00166B" transform="translate(252,109)"/>
<path d="M0 0 C0.77210952 2.50935594 0.98572204 4.34267107 0.875 7 C0.79462299 9.99456982 0.79462299 9.99456982 2.1875 12.375 C3.93097354 14.26271671 3.93097354 14.26271671 6.6875 14.25 C7.450625 14.1675 8.21375 14.085 9 14 C9.66 15.32 10.32 16.64 11 18 C13.86724686 17.42655063 14.8614515 17.1385485 17 15 C17.33 15.33 17.66 15.66 18 16 C18.33 15.34 18.66 14.68 19 14 C19.99 14 20.98 14 22 14 C22.33 12.35 22.66 10.7 23 9 C23.66 9 24.32 9 25 9 C25.33 8.34 25.66 7.68 26 7 C25.92430022 10.1793909 25.63231963 12.30889688 23.4453125 14.69921875 C17.46395287 19.82432566 17.46395287 19.82432566 12.875 20.375 C6.91875673 19.79858936 2.94216872 17.11872951 -1.0625 12.75 C-2.42837175 8.74344287 -1.91355176 5.0940653 -1 1 C-0.67 0.67 -0.34 0.34 0 0 Z " fill="#0070F7" transform="translate(217,225)"/>
<path d="M0 0 C0 0.66 0 1.32 0 2 C-0.99 2 -1.98 2 -3 2 C-3 2.66 -3 3.32 -3 4 C-3.639375 3.814375 -4.27875 3.62875 -4.9375 3.4375 C-5.618125 3.293125 -6.29875 3.14875 -7 3 C-7.33 3.33 -7.66 3.66 -8 4 C-9.86961787 4.32438165 -11.74615059 4.60925703 -13.625 4.875 C-19.95267873 5.88321516 -24.6349566 7.4233044 -30 11 C-30.33 9.02 -30.66 7.04 -31 5 C-9.39260417 -0.96942016 -9.39260417 -0.96942016 0 0 Z " fill="#001A77" transform="translate(235,139)"/>
<path d="M0 0 C0.66 -0.33 1.32 -0.66 2 -1 C2.99 0.65 3.98 2.3 5 4 C5.99 3.67 6.98 3.34 8 3 C8.99 3.99 9.98 4.98 11 6 C10.67 6.99 10.34 7.98 10 9 C9.34 9 8.68 9 8 9 C8.33 9.99 8.66 10.98 9 12 C8.67 12.99 8.34 13.98 8 15 C7.54560547 14.18595703 7.54560547 14.18595703 7.08203125 13.35546875 C6.66308594 12.64003906 6.24414062 11.92460937 5.8125 11.1875 C5.20341797 10.12595703 5.20341797 10.12595703 4.58203125 9.04296875 C2.60973808 6.49603213 0.92850679 5.34643991 -2 4 C-5.12353789 3.63987667 -5.12353789 3.63987667 -8.3125 3.8125 C-9.38113281 3.83957031 -10.44976562 3.86664062 -11.55078125 3.89453125 C-12.35902344 3.92933594 -13.16726562 3.96414062 -14 4 C-13.34 3.67 -12.68 3.34 -12 3 C-12 2.34 -12 1.68 -12 1 C-4.99726477 -2.57002188 -4.99726477 -2.57002188 0 0 Z " fill="#001058" transform="translate(144,11)"/>
<path d="M0 0 C2.33999405 3.50999108 2.13900326 4.70493364 1.9375 8.8125 C1.86075767 13.70629929 2.1155754 16.87939343 5 21 C5.7425 21.70125 6.485 22.4025 7.25 23.125 C7.8275 23.74375 8.405 24.3625 9 25 C8.75 27.25 8.75 27.25 8 29 C7.67 28.34 7.34 27.68 7 27 C6.34 27 5.68 27 5 27 C-0.20868956 20.9774527 -1.72434293 16.83116671 -2 9 C-1.5625 6.0625 -1.5625 6.0625 -1 4 C-1 3.01 -1 2.02 -1 1 C-0.67 0.67 -0.34 0.34 0 0 Z " fill="#001E7A" transform="translate(153,88)"/>
<path d="M0 0 C-3.37785222 2.21973146 -6.06465539 3.2347941 -10 4 C-10.33 4.66 -10.66 5.32 -11 6 C-11.99 6 -12.98 6 -14 6 C-14.33 6.66 -14.66 7.32 -15 8 C-15.99 8 -16.98 8 -18 8 C-19.71999038 8.74641092 -21.4392971 9.49469359 -23.1484375 10.265625 C-25.71099279 11.28199714 -28.27411446 11.66757493 -31 12 C-31 11.34 -31 10.68 -31 10 C-27.06322404 8.35243095 -23.12545764 6.70724242 -19.1875 5.0625 C-18.06794922 4.59392578 -16.94839844 4.12535156 -15.79492188 3.64257812 C-14.18520508 2.9706543 -14.18520508 2.9706543 -12.54296875 2.28515625 C-11.55321045 1.87144775 -10.56345215 1.45773926 -9.54370117 1.03149414 C-5.81108889 -0.48211435 -3.8601362 -1.1979733 0 0 Z " fill="#01D6F6" transform="translate(178,133)"/>
<path d="M0 0 C1.875 0.125 1.875 0.125 4 1 C5.1875 4 5.1875 4 6 7 C6.33 7.33 6.66 7.66 7 8 C7.04063832 9.66617115 7.042721 11.33388095 7 13 C7.66 13 8.32 13 9 13 C12.4804698 20.28470424 14.74833572 25.84109997 13 34 C12.67 34 12.34 34 12 34 C11.94972656 32.76121094 11.89945313 31.52242187 11.84765625 30.24609375 C11.1423011 23.89540942 8.30771125 18.69184067 5.4375 13.0625 C4.41225144 11.01327333 3.38995447 8.96256639 2.37109375 6.91015625 C1.91661865 6.01433838 1.46214355 5.11852051 0.99389648 4.19555664 C0 2 0 2 0 0 Z " fill="#0088F9" transform="translate(203,198)"/>
<path d="M0 0 C0.33 0.66 0.66 1.32 1 2 C1.66 2 2.32 2 3 2 C3.33 2.99 3.66 3.98 4 5 C3.071875 5.86625 3.071875 5.86625 2.125 6.75 C0.14509303 8.84637209 -0.8608128 10.39614355 -2 13 C-3.82175667 16.77363881 -5.90673062 20.37166641 -8 24 C-8.99 23.34 -9.98 22.68 -11 22 C-10.55346069 21.16021606 -10.55346069 21.16021606 -10.09790039 20.3034668 C-8.75039074 17.76606481 -7.40640945 15.22681049 -6.0625 12.6875 C-5.59392578 11.80642578 -5.12535156 10.92535156 -4.64257812 10.01757812 C-4.19462891 9.17001953 -3.74667969 8.32246094 -3.28515625 7.44921875 C-2.87144775 6.66893311 -2.45773926 5.88864746 -2.03149414 5.0847168 C-0.88885733 2.89537922 -0.88885733 2.89537922 0 0 Z " fill="#02DEFA" transform="translate(76,121)"/>
<path d="M0 0 C0 0.66 0 1.32 0 2 C-3.95706104 3.17101244 -7.91584968 4.33607272 -11.875 5.5 C-13.00292969 5.83386719 -14.13085938 6.16773437 -15.29296875 6.51171875 C-16.90751953 6.98544922 -16.90751953 6.98544922 -18.5546875 7.46875 C-20.04718018 7.90864258 -20.04718018 7.90864258 -21.56982422 8.35742188 C-24 9 -24 9 -26 9 C-26 8.01 -26 7.02 -26 6 C-5.22632639 -1.7421088 -5.22632639 -1.7421088 0 0 Z " fill="#001D78" transform="translate(209,120)"/>
<path d="M0 0 C0.66 0 1.32 0 2 0 C1.73510963 3.56340614 1.17907059 4.82180435 -1.3984375 7.38671875 C-2.87183594 8.52560547 -2.87183594 8.52560547 -4.375 9.6875 C-5.35210937 10.45449219 -6.32921875 11.22148437 -7.3359375 12.01171875 C-10.80467259 14.60055476 -13.96233533 16.47223499 -18 18 C-18.33 17.34 -18.66 16.68 -19 16 C-17.35 15.34 -15.7 14.68 -14 14 C-14 13.34 -14 12.68 -14 12 C-13.34 11.67 -12.68 11.34 -12 11 C-11.34 10.01 -10.68 9.02 -10 8 C-7.875 7.3125 -7.875 7.3125 -6 7 C-6 6.34 -6 5.68 -6 5 C-4.34467377 3.98133771 -2.67739862 2.98189187 -1 2 C-0.67 1.34 -0.34 0.68 0 0 Z " fill="#000E5D" transform="translate(77,183)"/>
<path d="M0 0 C-3.48060674 3.2021582 -6.40172474 3.38689663 -11 4 C-14.43444574 5.09306049 -17.77321238 6.38660619 -21 8 C-23.125 7.0625 -23.125 7.0625 -25 6 C-25 6.66 -25 7.32 -25 8 C-26.32 7.67 -27.64 7.34 -29 7 C-29 6.34 -29 5.68 -29 5 C-25.67037957 4.15134403 -22.33581652 3.32393332 -19 2.5 C-18.06542969 2.26152344 -17.13085938 2.02304688 -16.16796875 1.77734375 C-10.61709565 0.41873845 -5.71350121 -0.26950477 0 0 Z " fill="#01E3F7" transform="translate(234,117)"/>
<path d="M0 0 C2.89466723 3.55254615 4.62414438 6.90594726 5.4375 11.4375 C5.92930638 14.17767738 5.92930638 14.17767738 7.5625 17.125 C9 20 9 20 9 23 C8.34 23 7.68 23 7 23 C5.23537317 19.91190305 5 18.76687864 5 15 C4.01 15.33 3.02 15.66 2 16 C0.04893237 14.04893237 0.24866112 10.61036503 -0.125 8 C-0.31320313 6.72125 -0.50140625 5.4425 -0.6953125 4.125 C-0.79585937 3.09375 -0.89640625 2.0625 -1 1 C-0.67 0.67 -0.34 0.34 0 0 Z " fill="#00146B" transform="translate(187,166)"/>
<path d="M0 0 C0.33 0.99 0.66 1.98 1 3 C1.99 3.33 2.98 3.66 4 4 C4.6875 6.0625 4.6875 6.0625 5 8 C9.50280755 9.50093585 12.40840849 10.20831355 17 9 C18.6662553 8.9629721 20.33401319 8.95240038 22 9 C21.67 9.66 21.34 10.32 21 11 C16.01589668 12.66136777 9.91410036 13.33084898 5.015625 11.09375 C1.43267946 8.32672275 0.00585364 5.32517066 -1 1 C-0.67 0.67 -0.34 0.34 0 0 Z " fill="#0069F4" transform="translate(35,230)"/>
<path d="M0 0 C0.66 0.99 1.32 1.98 2 3 C1.16855469 4.41152344 1.16855469 4.41152344 0.3203125 5.8515625 C-0.41174867 7.10920604 -1.14350325 8.36702808 -1.875 9.625 C-2.23980469 10.24246094 -2.60460937 10.85992187 -2.98046875 11.49609375 C-5.14861194 15.24106836 -6.77764879 18.81827217 -8 23 C-8.66 23 -9.32 23 -10 23 C-11.25348607 20.04893565 -11.01044806 19.02593537 -9.78515625 15.984375 C-9.21667969 14.91703125 -8.64820312 13.8496875 -8.0625 12.75 C-7.49660156 11.67234375 -6.93070313 10.5946875 -6.34765625 9.484375 C-5.90292969 8.66453125 -5.45820313 7.8446875 -5 7 C-4.34 7 -3.68 7 -3 7 C-2.01 4.69 -1.02 2.38 0 0 Z " fill="#012081" transform="translate(136,53)"/>
<path d="M0 0 C1.98 0 3.96 0 6 0 C6 0.99 6 1.98 6 3 C7.32 2.67 8.64 2.34 10 2 C10.69289369 5.72430357 11.11144596 9.21083746 11 13 C10.67 12.34 10.34 11.68 10 11 C9.34 11 8.68 11 8 11 C6.66666667 9 5.33333333 7 4 5 C2.68441297 3.97676564 1.35622245 2.96873032 0 2 C0 1.34 0 0.68 0 0 Z " fill="#010E50" transform="translate(253,110)"/>
<path d="M0 0 C2.71202332 2.31188874 3.48680757 4.0189504 4.125 7.5 C4.62215154 10.11658703 5.15393365 12.46180095 6 15 C6.99 15.33 7.98 15.66 9 16 C9 16.66 9 17.32 9 18 C9.66 18.33 10.32 18.66 11 19 C10.67 19.99 10.34 20.98 10 22 C9.34 21.67 8.68 21.34 8 21 C8 20.34 8 19.68 8 19 C7.34 19 6.68 19 6 19 C2 13.58823529 2 13.58823529 2 11 C1.01 11.33 0.02 11.66 -1 12 C-0.67 9.36 -0.34 6.72 0 4 C-0.66 4 -1.32 4 -2 4 C-1.34 2.68 -0.68 1.36 0 0 Z " fill="#01115A" transform="translate(52,155)"/>
<path d="M0 0 C0.66 0.99 1.32 1.98 2 3 C0.84625622 6.46123134 -0.03672292 7.01149848 -2.9375 9.0625 C-5.14442927 10.63658929 -7.07911204 12.07911204 -9 14 C-12.0390625 14.1953125 -12.0390625 14.1953125 -15.625 14.125 C-16.81351563 14.10695312 -18.00203125 14.08890625 -19.2265625 14.0703125 C-20.14179687 14.04710937 -21.05703125 14.02390625 -22 14 C-22 13.34 -22 12.68 -22 12 C-20.91332031 11.81824219 -20.91332031 11.81824219 -19.8046875 11.6328125 C-16.86242872 11.12282098 -13.93176636 10.56691615 -11 10 C-9.88625 9.79375 -8.7725 9.5875 -7.625 9.375 C-3.6506418 7.29319332 -2.04365605 3.88837212 0 0 Z " fill="#000A4C" transform="translate(64,231)"/>
<path d="M0 0 C0.66 0 1.32 0 2 0 C2.83790789 1.78953185 3.67019396 3.58169695 4.5 5.375 C4.9640625 6.37273438 5.428125 7.37046875 5.90625 8.3984375 C7 11 7 11 7 13 C7.99 13.33 8.98 13.66 10 14 C9.67 14.66 9.34 15.32 9 16 C9.89363605 18.60931266 9.89363605 18.60931266 11 21 C11.66 21 12.32 21 13 21 C12.67 22.98 12.34 24.96 12 27 C9.22294831 23.71287759 7.88904975 20.40657704 6.4375 16.375 C4.88537311 11.76716033 4.88537311 11.76716033 2 8 C1.61781233 6.34385343 1.28604898 4.67542976 1 3 C0.67 2.01 0.34 1.02 0 0 Z " fill="#001F79" transform="translate(150,18)"/>
<path d="M0 0 C0.99 0 1.98 0 3 0 C2.375 2.875 2.375 2.875 1 6 C-2.0625 7.3125 -2.0625 7.3125 -5 8 C-5.33 8.33 -5.66 8.66 -6 9 C-7.51928038 9.07179964 -9.04167482 9.08392007 -10.5625 9.0625 C-11.38878906 9.05347656 -12.21507813 9.04445312 -13.06640625 9.03515625 C-13.70449219 9.02355469 -14.34257813 9.01195312 -15 9 C-14.67 8.01 -14.34 7.02 -14 6 C-13.32453125 5.90203125 -12.6490625 5.8040625 -11.953125 5.703125 C-6.67129783 4.81773201 -3.55048838 4.26058605 0 0 Z " fill="#01176E" transform="translate(81,168)"/>
<path d="M0 0 C0.66 0.33 1.32 0.66 2 1 C0.35433477 6.68502535 -2.29032784 11.76681636 -5 17 C-5.66 16.67 -6.32 16.34 -7 16 C-7.89007348 13.25560677 -8.15155816 11.54560939 -7.375 8.75 C-6 7 -6 7 -3.375 6.25 C-2.199375 6.12625 -2.199375 6.12625 -1 6 C-0.67 4.02 -0.34 2.04 0 0 Z " fill="#001A74" transform="translate(121,21)"/>
<path d="M0 0 C0.66 0.33 1.32 0.66 2 1 C2.08126087 3.08268593 2.13930839 5.16628658 2.1875 7.25 C2.22230469 8.41015625 2.25710937 9.5703125 2.29296875 10.765625 C1.97839369 14.23853368 1.52058511 15.62630213 -1 18 C-1.99 18 -2.98 18 -4 18 C-4 17.34 -4 16.68 -4 16 C-3.34 16 -2.68 16 -2 16 C-1.47925885 11.81547288 -1 7.72205587 -1 3.5 C-1 1 -1 1 0 0 Z " fill="#00D3FA" transform="translate(82,151)"/>
<path d="M0 0 C0.66 0.33 1.32 0.66 2 1 C-11.6332574 9.44646925 -11.6332574 9.44646925 -18 13 C-18.66 12.34 -19.32 11.68 -20 11 C-19.05125 10.38125 -18.1025 9.7625 -17.125 9.125 C-14.05554891 7.18029031 -14.05554891 7.18029031 -12 5 C-11.278125 4.87625 -10.55625 4.7525 -9.8125 4.625 C-7.12535698 4.02785711 -5.6259592 3.28235435 -3.3125 1.875 C-1.6728125 0.946875 -1.6728125 0.946875 0 0 Z " fill="#010E61" transform="translate(125,153)"/>
<path d="M0 0 C1.22668194 3.68004581 0.67169983 4.33689159 -0.94921875 7.74609375 C-1.38556641 8.66583984 -1.82191406 9.58558594 -2.27148438 10.53320312 C-2.73876953 11.49162109 -3.20605469 12.45003906 -3.6875 13.4375 C-4.13544922 14.39205078 -4.58339844 15.34660156 -5.04492188 16.33007812 C-7.26972093 20.95778969 -9.18690914 24.48088664 -13 28 C-12.7683578 26.60100301 -12.513662 25.20581728 -12.25 23.8125 C-12.11078125 23.03519531 -11.9715625 22.25789063 -11.828125 21.45703125 C-10.78864911 18.37292589 -9.04872455 16.52379111 -7 14 C-5.63052643 11.61909184 -4.4380341 9.16299595 -3.25 6.6875 C-2.93417969 6.04232422 -2.61835937 5.39714844 -2.29296875 4.73242188 C-1.52308292 3.15765541 -0.76075109 1.5791996 0 0 Z " fill="#020653" transform="translate(91,88)"/>
<path d="M0 0 C0.625 1.8125 0.625 1.8125 1 4 C0.01 5.485 0.01 5.485 -1 7 C-1.09782036 9.82403124 -0.93277781 12.58569044 -0.77734375 15.40625 C-1 18 -1 18 -2.50390625 19.84375 C-2.99761719 20.2253125 -3.49132812 20.606875 -4 21 C-4 19.35 -4 17.7 -4 16 C-4.33 16 -4.66 16 -5 16 C-5.63107894 6.81429541 -5.63107894 6.81429541 -3.0625 3.5 C-2.381875 3.005 -1.70125 2.51 -1 2 C-0.67 1.34 -0.34 0.68 0 0 Z " fill="#001A77" transform="translate(89,146)"/>
<path d="M0 0 C0 0.33 0 0.66 0 1 C-1.093125 1.12375 -2.18625 1.2475 -3.3125 1.375 C-7.24098986 2.04084574 -9.08002231 3.33557167 -12.25 5.625 C-15.66683222 7.33341611 -18.22950308 7.22179394 -22 7 C-18.25 5 -18.25 5 -16 5 C-15.67 4.01 -15.34 3.02 -15 2 C-9.50510651 -1.13993913 -6.15677106 -1.1881488 0 0 Z " fill="#00115F" transform="translate(252,109)"/>
<path d="M0 0 C0.66 0.33 1.32 0.66 2 1 C2 1.99 2 2.98 2 4 C0.49609375 5.4296875 0.49609375 5.4296875 -1.5625 6.875 C-2.64724609 7.6484375 -2.64724609 7.6484375 -3.75390625 8.4375 C-4.49511719 8.953125 -5.23632812 9.46875 -6 10 C-7.33396081 10.95745972 -8.66735315 11.91571229 -10 12.875 C-10.99 13.57625 -11.98 14.2775 -13 15 C-11.38989473 10.92623969 -8.46177729 8.23492931 -5.375 5.25 C-4.859375 4.74339844 -4.34375 4.23679688 -3.8125 3.71484375 C-2.54616661 2.47196098 -1.2736856 1.23534724 0 0 Z " fill="#0095FA" transform="translate(63,199)"/>
<path d="M0 0 C2 1.8125 2 1.8125 4 4 C4 4.99 4 5.98 4 7 C4.66 7.33 5.32 7.66 6 8 C7.05047644 10.31104818 8.05007438 12.64583651 9 15 C9.33 15.66 9.66 16.32 10 17 C5.39013414 15.0924693 3.69896328 12.04844492 1 8 C-0.1875 4.9375 -0.1875 4.9375 -1 2 C-0.67 1.34 -0.34 0.68 0 0 Z " fill="#000D5B" transform="translate(228,200)"/>
<path d="M0 0 C1.485 0.99 1.485 0.99 3 2 C5.76439566 1.80589112 5.76439566 1.80589112 8.6875 1.125 C9.68136719 0.92132813 10.67523438 0.71765625 11.69921875 0.5078125 C12.45847656 0.34023437 13.21773437 0.17265625 14 0 C14.33 0.99 14.66 1.98 15 3 C11.85030499 4.84586777 9.51115326 5.27170838 5.875 5.25 C4.57175781 5.25773438 4.57175781 5.25773438 3.2421875 5.265625 C1 5 1 5 -1 3 C-0.67 2.01 -0.34 1.02 0 0 Z " fill="#01C3F9" transform="translate(63,169)"/>
<path d="M0 0 C0.66 0.99 1.32 1.98 2 3 C1.51789063 3.36351562 1.03578125 3.72703125 0.5390625 4.1015625 C-3.57776088 7.37821784 -5.85437362 9.65374355 -7 15 C-9 12 -9 12 -8.87890625 9.55078125 C-7.80460274 6.43291374 -6.48295425 5.24810582 -3.9375 3.1875 C-3.20402344 2.58292969 -2.47054687 1.97835937 -1.71484375 1.35546875 C-1.14894531 0.90816406 -0.58304688 0.46085938 0 0 Z " fill="#03CAF6" transform="translate(64,145)"/>
<path d="M0 0 C0 0.66 0 1.32 0 2 C-2.9292839 3.53706073 -5.86957114 5.05175162 -8.8125 6.5625 C-9.64587891 7.00013672 -10.47925781 7.43777344 -11.33789062 7.88867188 C-12.14033203 8.29794922 -12.94277344 8.70722656 -13.76953125 9.12890625 C-14.87711792 9.70233765 -14.87711792 9.70233765 -16.00708008 10.28735352 C-18 11 -18 11 -21 10 C-19.21118264 8.99491199 -17.41885304 7.99607264 -15.625 7 C-14.62726563 6.443125 -13.62953125 5.88625 -12.6015625 5.3125 C-10 4 -10 4 -8 4 C-8 3.34 -8 2.68 -8 2 C-4.77208445 -0.1519437 -3.71599191 -0.20086443 0 0 Z " fill="#01C2F8" transform="translate(160,159)"/>
<path d="M0 0 C0.66 0 1.32 0 2 0 C3 3 3 3 2.21484375 4.7890625 C-1.26613347 9.79230192 -1.26613347 9.79230192 -5.3125 10.9375 C-6.199375 10.958125 -7.08625 10.97875 -8 11 C-7.25 8.5625 -7.25 8.5625 -6 6 C-4.66666667 5.66666667 -3.33333333 5.33333333 -2 5 C-0.70339566 2.50965614 -0.70339566 2.50965614 0 0 Z " fill="#010F5B" transform="translate(65,137)"/>
<path d="M0 0 C0.66796875 1.7734375 0.66796875 1.7734375 1 4 C-0.07421875 5.8515625 -0.07421875 5.8515625 -1.6875 7.625 C-2.20699219 8.21539062 -2.72648438 8.80578125 -3.26171875 9.4140625 C-7.31128806 13.10872573 -10.60220114 13.20760765 -16 13 C-16 12.67 -16 12.34 -16 12 C-14.02 12 -12.04 12 -10 12 C-9.34 10.68 -8.68 9.36 -8 8 C-7.67 8.33 -7.34 8.66 -7 9 C-6.67 8.34 -6.34 7.68 -6 7 C-5.01 7 -4.02 7 -3 7 C-2.67 5.35 -2.34 3.7 -2 2 C-1.34 2 -0.68 2 0 2 C0 1.34 0 0.68 0 0 Z " fill="#006BF7" transform="translate(242,232)"/>
<path d="M0 0 C0.33 0 0.66 0 1 0 C1.07476562 0.71285156 1.14953125 1.42570312 1.2265625 2.16015625 C2.08431709 8.40830978 3.14837288 12.15459905 7.85546875 16.46484375 C8.23316406 16.97144531 8.61085937 17.47804688 9 18 C8.67578125 20.19140625 8.67578125 20.19140625 8 22 C7.67 21.34 7.34 20.68 7 20 C6.34 20 5.68 20 5 20 C0.92936486 13.16714816 -0.76258253 7.96475086 0 0 Z " fill="#01115F" transform="translate(153,95)"/>
<path d="M0 0 C1.32 0.33 2.64 0.66 4 1 C3.38125 1.61875 2.7625 2.2375 2.125 2.875 C-0.71043937 7.04476378 -1.27334545 11.07595927 -2 16 C-2.33 16 -2.66 16 -3 16 C-4.61050328 6.00437637 -4.61050328 6.00437637 -2.0625 1.8125 C-1.381875 1.214375 -0.70125 0.61625 0 0 Z " fill="#000B4C" transform="translate(56,148)"/>
<path d="M0 0 C0.66 0.99 1.32 1.98 2 3 C1.34 3.66 0.68 4.32 0 5 C-0.50549721 6.46371993 -0.95864599 7.94597299 -1.375 9.4375 C-2.34421281 12.52904034 -2.78443724 13.79675512 -5.1875 16.0625 C-6.0846875 16.5265625 -6.0846875 16.5265625 -7 17 C-6.731875 16.38125 -6.46375 15.7625 -6.1875 15.125 C-4.82447102 11.53808163 -3.8011597 7.90420391 -2.78125 4.20703125 C-2 2 -2 2 0 0 Z " fill="#0170F3" transform="translate(64,222)"/>
<path d="M0 0 C0.66 0.33 1.32 0.66 2 1 C1.01 1.99 0.02 2.98 -1 4 C-0.67 4.66 -0.34 5.32 0 6 C-1.72814161 6.19672365 -3.45759197 6.38196799 -5.1875 6.5625 C-6.15042969 6.66691406 -7.11335937 6.77132812 -8.10546875 6.87890625 C-10.94233377 6.99758751 -13.25423671 6.67765639 -16 6 C-13.06960405 4.0464027 -12.2373049 3.74671438 -8.9375 3.5 C-5.00011598 3.40838115 -5.00011598 3.40838115 -3 1 C-2.01 0.67 -1.02 0.34 0 0 Z " fill="#001467" transform="translate(258,137)"/>
<path d="M0 0 C2.67985418 2.67985418 3.16491955 5.42431913 4.21875 9.00390625 C4.81628991 11.18727401 4.81628991 11.18727401 7 12 C7.6328125 14.06640625 7.6328125 14.06640625 8.125 16.5625 C8.29257813 17.38878906 8.46015625 18.21507812 8.6328125 19.06640625 C8.75398437 19.70449219 8.87515625 20.34257812 9 21 C6.18816428 17.63086351 4.49924999 13.94821665 2.8125 9.9375 C2.40354492 9.00067383 2.40354492 9.00067383 1.98632812 8.04492188 C0.77075658 5.190309 0 3.13560401 0 0 Z " fill="#00176F" transform="translate(210,158)"/>
<path d="M0 0 C1.50985858 2.01314477 2.04706048 3.45880453 1.828125 5.9765625 C0.96769216 10.05620097 0.96769216 10.05620097 0 12 C-2.0859375 13.2421875 -2.0859375 13.2421875 -4 14 C-3.52525225 11.85318469 -3.04508251 9.70756772 -2.5625 7.5625 C-2.29566406 6.36753906 -2.02882812 5.17257813 -1.75390625 3.94140625 C-1 1 -1 1 0 0 Z " fill="#00125E" transform="translate(186,96)"/>
<path d="M0 0 C2.04795423 1.9626228 2.94976638 3.4277307 3.19921875 6.26953125 C3.18858877 8.51954383 3.12958525 10.75385562 3 13 C2.01 13.33 1.02 13.66 0 14 C-0.19456705 12.04235617 -0.38044247 10.08384679 -0.5625 8.125 C-0.66691406 7.03445312 -0.77132812 5.94390625 -0.87890625 4.8203125 C-1 2 -1 2 0 0 Z " fill="#001060" transform="translate(212,219)"/>
<path d="M0 0 C0.99 0.33 1.98 0.66 3 1 C3 2.32 3 3.64 3 5 C3.66 5 4.32 5 5 5 C5.33 6.65 5.66 8.3 6 10 C6.66 10 7.32 10 8 10 C8 10.99 8 11.98 8 13 C7.01 13 6.02 13 5 13 C4.16209211 11.21046815 3.32980604 9.41830305 2.5 7.625 C1.80390625 6.12839844 1.80390625 6.12839844 1.09375 4.6015625 C0 2 0 2 0 0 Z " fill="#010E6C" transform="translate(202,145)"/>
<path d="M0 0 C2.31 0 4.62 0 7 0 C4.84655717 2.40243465 3.03125235 3.60244944 0 4.6875 C-0.680625 4.93886719 -1.36125 5.19023437 -2.0625 5.44921875 C-4 6 -4 6 -7 6 C-6.34 4.68 -5.68 3.36 -5 2 C-3.68 2 -2.36 2 -1 2 C-0.67 1.34 -0.34 0.68 0 0 Z " fill="#01CCF9" transform="translate(169,153)"/>
<path d="M0 0 C0.66 0.33 1.32 0.66 2 1 C0.14754855 6.68085111 -1.74118729 10.74118729 -6 15 C-5.71517632 13.58194169 -5.42181856 12.16559621 -5.125 10.75 C-4.96257812 9.96109375 -4.80015625 9.1721875 -4.6328125 8.359375 C-4.00849925 6.03168856 -3.15161458 4.10968048 -2 2 C-1.34 2 -0.68 2 0 2 C0 1.34 0 0.68 0 0 Z " fill="#001B77" transform="translate(79,109)"/>
<path d="M0 0 C3.95680442 2.08831345 6.58783295 4.19619811 9 8 C8.6015625 10.16015625 8.6015625 10.16015625 8 12 C7.67386719 11.52949219 7.34773437 11.05898437 7.01171875 10.57421875 C6.57472656 9.95160156 6.13773438 9.32898438 5.6875 8.6875 C5.25824219 8.07261719 4.82898438 7.45773438 4.38671875 6.82421875 C3.04165253 4.95767339 3.04165253 4.95767339 1.33203125 3.39453125 C0 2 0 2 0 0 Z " fill="#017AF5" transform="translate(234,217)"/>
<path d="M0 0 C2.0625 0.4375 2.0625 0.4375 4 1 C2.54744301 4.82946843 0.57104439 6.12050295 -3 8 C-3.66 7.34 -4.32 6.68 -5 6 C-4.01 5.67 -3.02 5.34 -2 5 C-1.33820153 3.01954441 -1.33820153 3.01954441 -1 1 C-0.67 0.67 -0.34 0.34 0 0 Z " fill="#00156A" transform="translate(85,176)"/>
<path d="M0 0 C1 3 1 3 -0.21484375 5.91796875 C-0.78332031 6.99691406 -1.35179688 8.07585937 -1.9375 9.1875 C-2.50339844 10.27417969 -3.06929688 11.36085938 -3.65234375 12.48046875 C-4.09707031 13.31191406 -4.54179688 14.14335938 -5 15 C-5.66 15 -6.32 15 -7 15 C-5.94124926 11.59687262 -4.99097846 8.98646769 -3 6 C-2.83286431 3.37468476 -2.83286431 3.37468476 -3 1 C-2.01 0.67 -1.02 0.34 0 0 Z " fill="#00217D" transform="translate(105,56)"/>
<path d="M0 0 C0 0.66 0 1.32 0 2 C-1.6396721 3.36639342 -3.31110128 4.6949419 -5 6 C-6.35147138 7.31494512 -7.69112542 8.64264858 -9 10 C-9.66 9.34 -10.32 8.68 -11 8 C-10.67 7.34 -10.34 6.68 -10 6 C-9.34 6 -8.68 6 -8 6 C-7.67 5.01 -7.34 4.02 -7 3 C-6.01 3 -5.02 3 -4 3 C-4 2.34 -4 1.68 -4 1 C-2 0 -2 0 0 0 Z " fill="#00166F" transform="translate(101,167)"/>
<path d="M0 0 C-1.72440365 0.98753064 -3.45475026 1.96468806 -5.1875 2.9375 C-6.15042969 3.48277344 -7.11335937 4.02804688 -8.10546875 4.58984375 C-10.8397669 5.92193772 -12.97362207 6.75433547 -16 7 C-16.66 6.34 -17.32 5.68 -18 5 C-17.41992188 4.81824219 -16.83984375 4.63648438 -16.2421875 4.44921875 C-12.52193592 3.25210809 -9.10613497 2.05503295 -5.625 0.25 C-3 -1 -3 -1 0 0 Z " fill="#001771" transform="translate(154,167)"/>
<path d="M0 0 C0 0.66 0 1.32 0 2 C-9.05607477 4.6635514 -9.05607477 4.6635514 -12 5 C-12.66 4.34 -13.32 3.68 -14 3 C-4.58997722 -0.44419134 -4.58997722 -0.44419134 0 0 Z " fill="#01D6F3" transform="translate(193,127)"/>
<path d="M0 0 C1.65 0 3.3 0 5 0 C6.0235918 5.62975492 6.0235918 10.37024508 5 16 C4.67 16 4.34 16 4 16 C4.04640625 15.43152344 4.0928125 14.86304687 4.140625 14.27734375 C4.42349971 8.2258455 3.40589234 5.00240438 0 0 Z " fill="#00297E" transform="translate(180,87)"/>
<path d="M0 0 C0.66 0 1.32 0 2 0 C0.4169423 4.2742558 -2.50568404 6.26531794 -6 9 C-6.99 8.01 -7.98 7.02 -9 6 C-6 4 -6 4 -3.9375 3 C-1.83805638 2.04074983 -1.83805638 2.04074983 0 0 Z " fill="#000D5C" transform="translate(83,210)"/>
<path d="M0 0 C2.0343459 1.41519715 2.90410393 2.54982123 3.421875 4.98046875 C3.66273952 6.98176954 3.83532741 8.9909944 4 11 C2.35 11.33 0.7 11.66 -1 12 C-0.67 9.36 -0.34 6.72 0 4 C-0.66 4 -1.32 4 -2 4 C-1.34 2.68 -0.68 1.36 0 0 Z " fill="#00186A" transform="translate(52,155)"/>
<path d="M0 0 C0.99 0.33 1.98 0.66 3 1 C2.34 1 1.68 1 1 1 C1.45052734 1.90492188 1.45052734 1.90492188 1.91015625 2.828125 C2.29042969 3.62734375 2.67070312 4.4265625 3.0625 5.25 C3.44535156 6.03890625 3.82820312 6.8278125 4.22265625 7.640625 C5.08564091 10.25993522 4.93045933 11.44855176 4 14 C3.13116294 12.42466914 2.28040932 10.83935491 1.4375 9.25 C0.96183594 8.36828125 0.48617187 7.4865625 -0.00390625 6.578125 C-1.07998186 3.79298812 -1.06528748 2.73019786 0 0 Z " fill="#01CBF7" transform="translate(201,144)"/>
<path d="M0 0 C0.66 0.33 1.32 0.66 2 1 C0.5361389 5.39158329 -1.97831338 5.87947433 -6 8 C-6.66 7.34 -7.32 6.68 -8 6 C-5.36 4.02 -2.72 2.04 0 0 Z " fill="#009CF8" transform="translate(112,183)"/>
<path d="M0 0 C0 0.66 0 1.32 0 2 C-1.74635165 2.53293835 -3.49727652 3.05090663 -5.25 3.5625 C-6.22453125 3.85253906 -7.1990625 4.14257812 -8.203125 4.44140625 C-11 5 -11 5 -15 4 C-12.03 3.34 -9.06 2.68 -6 2 C-6 1.34 -6 0.68 -6 0 C-3 -1 -3 -1 0 0 Z " fill="#000D61" transform="translate(209,120)"/>
<path d="M0 0 C0.66 0.99 1.32 1.98 2 3 C1.67 3.99 1.34 4.98 1 6 C0.38125 5.814375 -0.2375 5.62875 -0.875 5.4375 C-3.04160178 4.76313824 -3.04160178 4.76313824 -5 6 C-5.66 5.34 -6.32 4.68 -7 4 C-4.68143083 2.45428722 -2.49361571 1.20381448 0 0 Z M-9 5 C-7 6 -7 6 -7 6 Z " fill="#011B7E" transform="translate(179,153)"/>
<path d="M0 0 C1.65 0.33 3.3 0.66 5 1 C3.0170177 2.9829823 1.48781693 3.79378573 -1 5 C-1.99 5.66 -2.98 6.32 -4 7 C-4.99 6.34 -5.98 5.68 -7 5 C-6.67 4.34 -6.34 3.68 -6 3 C-4.33333333 2.66666667 -2.66666667 2.33333333 -1 2 C-0.67 1.34 -0.34 0.68 0 0 Z " fill="#001D78" transform="translate(162,132)"/>
<path d="M0 0 C0.33 0.99 0.66 1.98 1 3 C-3.56327794 6.53286034 -7.49633208 6.32374517 -13 6 C-13 5.67 -13 5.34 -13 5 C-10.36 5 -7.72 5 -5 5 C-5 4.01 -5 3.02 -5 2 C-3.35 2 -1.7 2 0 2 C0 1.34 0 0.68 0 0 Z " fill="#01D8F4" transform="translate(256,134)"/>
<path d="M0 0 C3.63 0 7.26 0 11 0 C11 0.66 11 1.32 11 2 C10.01 2 9.02 2 8 2 C8 2.66 8 3.32 8 4 C5.36 3.67 2.72 3.34 0 3 C0 2.01 0 1.02 0 0 Z " fill="#001C79" transform="translate(224,139)"/>
<path d="M0 0 C3.09592835 3.5087188 4.74194623 6.49197399 6 11 C5.01 11 4.02 11 3 11 C2.49384702 9.73160474 1.99530901 8.46016898 1.5 7.1875 C1.2215625 6.47980469 0.943125 5.77210937 0.65625 5.04296875 C0 3 0 3 0 0 Z " fill="#001F7A" transform="translate(164,50)"/>
<path d="M0 0 C2.6855594 2.6855594 3.06049974 5.37621328 4 9 C3.01 9 2.02 9 1 9 C-1.125 2.25 -1.125 2.25 0 0 Z " fill="#0188F3" transform="translate(225,199)"/>
<path d="M0 0 C0.556875 0.226875 1.11375 0.45375 1.6875 0.6875 C0.6975 1.1825 0.6975 1.1825 -0.3125 1.6875 C-1.3025 3.1725 -1.3025 3.1725 -2.3125 4.6875 C-2.9725 4.3575 -3.6325 4.0275 -4.3125 3.6875 C-4.6425 4.3475 -4.9725 5.0075 -5.3125 5.6875 C-5.9725 5.3575 -6.6325 5.0275 -7.3125 4.6875 C-7.3125 4.0275 -7.3125 3.3675 -7.3125 2.6875 C-3.15982824 -0.42700382 -3.15982824 -0.42700382 0 0 Z " fill="#02EFFC" transform="translate(242.3125,113.3125)"/>
<path d="M0 0 C-2 2 -2 2 -3.9453125 2.1953125 C-5.96354167 2.13020833 -7.98177083 2.06510417 -10 2 C-6.86358686 -1.13641314 -4.14410883 -1.38136961 0 0 Z " fill="#0178EB" transform="translate(51,214)"/>
<path d="M0 0 C1.65 0.33 3.3 0.66 5 1 C3.36587557 2.70840281 2.13093906 3.93453047 0 5 C-2.3329866 5.04022391 -4.66706666 5.04320247 -7 5 C-7 4.67 -7 4.34 -7 4 C-5.02 4 -3.04 4 -1 4 C-0.67 2.68 -0.34 1.36 0 0 Z " fill="#0052D3" transform="translate(233,240)"/>
<path d="M0 0 C0.66 0.66 1.32 1.32 2 2 C1.34 2 0.68 2 0 2 C-0.33 2.99 -0.66 3.98 -1 5 C-3.5625 6.1875 -3.5625 6.1875 -6 7 C-4.02 4.69 -2.04 2.38 0 0 Z " fill="#000B55" transform="translate(72,220)"/>
<path d="M0 0 C0.99 0.33 1.98 0.66 3 1 C2.34 2.32 1.68 3.64 1 5 C0.67 4.34 0.34 3.68 0 3 C-1.98 3.66 -3.96 4.32 -6 5 C-2.25 1.125 -2.25 1.125 0 0 Z " fill="#010A56" transform="translate(124,179)"/>
<path d="M0 0 C-1.0625 1.5 -1.0625 1.5 -3 3 C-6.6875 3.1875 -6.6875 3.1875 -10 3 C-8.0130571 -0.97388579 -3.91761109 -0.08705802 0 0 Z " fill="#02E5F7" transform="translate(204,124)"/>
<path d="M0 0 C0.33 0.66 0.66 1.32 1 2 C1.66 2 2.32 2 3 2 C3.33 2.99 3.66 3.98 4 5 C2.35 6.32 0.7 7.64 -1 9 C-0.67 6.03 -0.34 3.06 0 0 Z " fill="#00DAFA" transform="translate(76,121)"/>
<path d="M0 0 C1.98 0 3.96 0 6 0 C6.33 1.65 6.66 3.3 7 5 C4.69 4.34 2.38 3.68 0 3 C0 2.01 0 1.02 0 0 Z " fill="#00165C" transform="translate(253,110)"/>
<path d="M0 0 C0.75 1.5625 0.75 1.5625 1 4 C-0.13084437 6.50286409 -1.52139516 8.67007722 -3 11 C-3.33 10.34 -3.66 9.68 -4 9 C-2.92770717 5.86560559 -1.52342979 2.93804317 0 0 Z " fill="#010F60" transform="translate(82,105)"/>
<path d="M0 0 C0.66 0.99 1.32 1.98 2 3 C0.35 5.64 -1.3 8.28 -3 11 C-3.33 10.34 -3.66 9.68 -4 9 C-3.22265625 6.8359375 -3.22265625 6.8359375 -2.0625 4.375 C-1.68222656 3.55773438 -1.30195313 2.74046875 -0.91015625 1.8984375 C-0.60980469 1.27195313 -0.30945313 0.64546875 0 0 Z " fill="#002F93" transform="translate(136,53)"/>
<path d="M0 0 C0 0.99 0 1.98 0 3 C-2 4.6875 -2 4.6875 -4 6 C-4.66 5.67 -5.32 5.34 -6 5 C-5.25 3.0625 -5.25 3.0625 -4 1 C-1.875 0.25 -1.875 0.25 0 0 Z " fill="#00136C" transform="translate(63,142)"/>
<path d="M0 0 C1 2 1 2 0.25 4.9375 C-0.89726872 7.74830836 -1.69701628 9.1157406 -4 11 C-4.33 10.34 -4.66 9.68 -5 9 C-4.00390625 6.8359375 -4.00390625 6.8359375 -2.5625 4.375 C-2.08941406 3.55773437 -1.61632812 2.74046875 -1.12890625 1.8984375 C-0.75636719 1.27195312 -0.38382812 0.64546875 0 0 Z " fill="#001E7E" transform="translate(100,125)"/>
<path d="M0 0 C0.66 0 1.32 0 2 0 C1.44271087 3.34373475 0.64826111 6.03312999 -1 9 C-1.66 9 -2.32 9 -3 9 C-2.01 6.03 -1.02 3.06 0 0 Z " fill="#02DFF0" transform="translate(108,101)"/>
<path d="M0 0 C0.99 0 1.98 0 3 0 C3.125 2.875 3.125 2.875 3 6 C2.34 6.66 1.68 7.32 1 8 C0.34 5.69 -0.32 3.38 -1 1 C-0.67 0.67 -0.34 0.34 0 0 Z " fill="#001971" transform="translate(67,130)"/>
<path d="M0 0 C-4.95 1.485 -4.95 1.485 -10 3 C-10 2.01 -10 1.02 -10 0 C-3.375 -1.125 -3.375 -1.125 0 0 Z " fill="#030D64" transform="translate(193,126)"/>
<path d="M0 0 C0.99 0.66 1.98 1.32 3 2 C0.03 4.475 0.03 4.475 -3 7 C-2.67 5.35 -2.34 3.7 -2 2 C-1.34 2 -0.68 2 0 2 C0 1.34 0 0.68 0 0 Z " fill="#0082F5" transform="translate(70,216)"/>
<path d="M0 0 C0.66 0.33 1.32 0.66 2 1 C2 1.99 2 2.98 2 4 C0.02 4.99 0.02 4.99 -2 6 C-2.33 5.01 -2.66 4.02 -3 3 C-2.01 2.01 -1.02 1.02 0 0 Z " fill="#0088F2" transform="translate(63,199)"/>
<path d="M0 0 C-0.33 0.99 -0.66 1.98 -1 3 C-3.31 3.33 -5.62 3.66 -8 4 C-4.5 0 -4.5 0 0 0 Z " fill="#020D5A" transform="translate(138,173)"/>
<path d="M0 0 C0.33 0 0.66 0 1 0 C1 2.64 1 5.28 1 8 C0.01 8.33 -0.98 8.66 -2 9 C-2.33 8.01 -2.66 7.02 -3 6 C-2.34 6 -1.68 6 -1 6 C-0.67 4.02 -0.34 2.04 0 0 Z " fill="#001160" transform="translate(264,124)"/>
</svg>
